<svg xmlns="http://www.w3.org/2000/svg" width="400" height="250" viewBox="0 0 400 250" role="img"><title>Representative afterlife scarab illustration</title><defs><linearGradient id="clay"><stop stop-color="#a36237"/><stop offset=".45" stop-color="#d9ad68"/><stop offset="1" stop-color="#785037"/></linearGradient><linearGradient id="wood"><stop stop-color="#80562f"/><stop offset=".5" stop-color="#caa16a"/><stop offset="1" stop-color="#926334"/></linearGradient><linearGradient id="stone"><stop stop-color="#b29d74"/><stop offset=".4" stop-color="#e5d4a6"/><stop offset="1" stop-color="#a5946a"/></linearGradient><linearGradient id="linen"><stop stop-color="#d0bc94"/><stop offset=".5" stop-color="#f4e5c1"/><stop offset="1" stop-color="#caba9c"/></linearGradient><linearGradient id="blue"><stop stop-color="#326c65"/><stop offset=".5" stop-color="#7bb6a7"/><stop offset="1" stop-color="#357b73"/></linearGradient><linearGradient id="bronze"><stop stop-color="#766942"/><stop offset=".42" stop-color="#c5ab64"/><stop offset=".7" stop-color="#839173"/><stop offset="1" stop-color="#514e36"/></linearGradient><radialGradient id="bg"><stop stop-color="#e8dcc2"/><stop offset="1" stop-color="#c9bda2"/></radialGradient></defs><rect width="400" height="250" fill="url(#bg)"/><path d="M20 20H380V230H20Z" fill="none" stroke="#ae9b78"/><ellipse cx="200" cy="225" rx="112" ry="9" fill="#604e31" opacity=".16"/><ellipse cx="200" cy="142" rx="67" ry="65" fill="url(#blue)" stroke="#194c4a" stroke-width="4"/><path d="M146 106Q200 135 254 106M200 122v79" fill="none" stroke="#19615b" stroke-width="5"/><ellipse cx="200" cy="82" rx="34" ry="29" fill="#70b5a5" stroke="#225e55" stroke-width="4"/><path d="M154 105l-30-19-16 15m32 33-35 3-6 22m40 6-27 19 5 23m129-102 30-19 16 15m-32 33 35 3 6 22m-40 6 27 19-5 23" fill="none" stroke="#326959" stroke-width="7"/><path d="M181 59l-7-17m44 17 7-17" stroke="#326959" stroke-width="5"/></svg>
