<svg xmlns="http://www.w3.org/2000/svg" width="400" height="250" viewBox="0 0 400 250" role="img"><title>Representative afterlife canopic illustration</title><defs><linearGradient id="clay"><stop stop-color="#a36237"/><stop offset=".45" stop-color="#d9ad68"/><stop offset="1" stop-color="#785037"/></linearGradient><linearGradient id="wood"><stop stop-color="#80562f"/><stop offset=".5" stop-color="#caa16a"/><stop offset="1" stop-color="#926334"/></linearGradient><linearGradient id="stone"><stop stop-color="#b29d74"/><stop offset=".4" stop-color="#e5d4a6"/><stop offset="1" stop-color="#a5946a"/></linearGradient><linearGradient id="linen"><stop stop-color="#d0bc94"/><stop offset=".5" stop-color="#f4e5c1"/><stop offset="1" stop-color="#caba9c"/></linearGradient><linearGradient id="blue"><stop stop-color="#326c65"/><stop offset=".5" stop-color="#7bb6a7"/><stop offset="1" stop-color="#357b73"/></linearGradient><linearGradient id="bronze"><stop stop-color="#766942"/><stop offset=".42" stop-color="#c5ab64"/><stop offset=".7" stop-color="#839173"/><stop offset="1" stop-color="#514e36"/></linearGradient><radialGradient id="bg"><stop stop-color="#e8dcc2"/><stop offset="1" stop-color="#c9bda2"/></radialGradient></defs><rect width="400" height="250" fill="url(#bg)"/><path d="M20 20H380V230H20Z" fill="none" stroke="#ae9b78"/><ellipse cx="200" cy="225" rx="112" ry="9" fill="#604e31" opacity=".16"/><path d="M162 103Q150 156 159 206Q200 228 242 206Q250 156 237 103Z" fill="url(#stone)" stroke="#82734f" stroke-width="4"/><ellipse cx="200" cy="105" rx="41" ry="11" fill="#ae9f76" stroke="#82734f" stroke-width="4"/><path d="M167 98L165 60Q169 26 200 26Q233 27 237 61L233 98Z" fill="#e7d6aa" stroke="#82734f" stroke-width="4"/><path d="M171 45Q185 64 228 49M180 68h11m18 0h11m-22 6-4 11 10 0m-14 6h22M183 127v63m19-60v60m20-60v55" fill="none" stroke="#8f805c" stroke-width="4"/></svg>
